<svg xmlns="http://www.w3.org/2000/svg" width="900" height="260" viewBox="0 0 900 260">
  <rect width="900" height="260" fill="#ffffff"/>
  <g transform="translate(110,40)">
    <text x="0" y="140" font-family="Arial, Helvetica, sans-serif" font-size="120" font-weight="700" fill="#3f3f3f">
      bank
    </text>
    <g transform="translate(300,20)">
      <circle cx="90" cy="110" r="70" fill="#1f1f1f"/>
      <polygon points="45,60 75,20 105,60" fill="#1f1f1f"/>
      <polygon points="135,60 165,20 195,60" fill="#1f1f1f"/>
      <line x1="20" y1="120" x2="65" y2="120" stroke="#1f1f1f" stroke-width="6" stroke-linecap="round"/>
      <line x1="20" y1="140" x2="60" y2="150" stroke="#1f1f1f" stroke-width="6" stroke-linecap="round"/>
      <line x1="160" y1="120" x2="205" y2="120" stroke="#1f1f1f" stroke-width="6" stroke-linecap="round"/>
      <line x1="165" y1="150" x2="210" y2="140" stroke="#1f1f1f" stroke-width="6" stroke-linecap="round"/>
    </g>
    <text x="560" y="140" font-family="Arial, Helvetica, sans-serif" font-size="120" font-weight="700" fill="#2e7d32">
      AI
    </text>
    <g transform="translate(705,30)" fill="#9ca3af">
      <path d="M40 20l6 14 14 6-14 6-6 14-6-14-14-6 14-6z"/>
      <path d="M90 40l4 10 10 4-10 4-4 10-4-10-10-4 10-4z"/>
    </g>
  </g>
</svg>
